<mxfile host="app.diagrams.net" agent="Mozilla/5.0 (Windows NT 10.0; Win64; x64) AppleWebKit/537.36 (KHTML, like Gecko) Chrome/133.0.0.0 Safari/537.36 Edg/133.0.0.0" version="26.0.14">
  <diagram name="Страница — 1" id="_SNpnOByMxGq-11QS4lO">
    <mxGraphModel dx="1121" dy="515" grid="1" gridSize="10" guides="1" tooltips="1" connect="1" arrows="1" fold="1" page="1" pageScale="1" pageWidth="827" pageHeight="1169" math="0" shadow="0">
      <root>
        <mxCell id="0" />
        <mxCell id="1" parent="0" />
        <mxCell id="hM3irIBogoN5N5FxGbWt-159" value="Транспорт" style="shape=table;startSize=25;container=1;collapsible=0;childLayout=tableLayout;fixedRows=1;rowLines=1;fontStyle=1;align=center;resizeLast=1;" vertex="1" parent="1">
          <mxGeometry x="500" y="5" width="140" height="114" as="geometry" />
        </mxCell>
        <mxCell id="hM3irIBogoN5N5FxGbWt-160" style="shape=tableRow;horizontal=0;startSize=0;swimlaneHead=0;swimlaneBody=0;fillColor=none;collapsible=0;dropTarget=0;points=[[0,0.5],[1,0.5]];portConstraint=eastwest;top=0;left=0;right=0;bottom=0;" vertex="1" parent="hM3irIBogoN5N5FxGbWt-159">
          <mxGeometry y="25" width="140" height="22" as="geometry" />
        </mxCell>
        <mxCell id="hM3irIBogoN5N5FxGbWt-161" value="string" style="shape=partialRectangle;connectable=0;fillColor=none;top=0;left=0;bottom=0;right=0;align=left;spacingLeft=2;overflow=hidden;fontSize=11;" vertex="1" parent="hM3irIBogoN5N5FxGbWt-160">
          <mxGeometry width="36" height="22" as="geometry">
            <mxRectangle width="36" height="22" as="alternateBounds" />
          </mxGeometry>
        </mxCell>
        <mxCell id="hM3irIBogoN5N5FxGbWt-162" value="Гос-номер" style="shape=partialRectangle;connectable=0;fillColor=none;top=0;left=0;bottom=0;right=0;align=left;spacingLeft=2;overflow=hidden;fontSize=11;" vertex="1" parent="hM3irIBogoN5N5FxGbWt-160">
          <mxGeometry x="36" width="104" height="22" as="geometry">
            <mxRectangle width="104" height="22" as="alternateBounds" />
          </mxGeometry>
        </mxCell>
        <mxCell id="hM3irIBogoN5N5FxGbWt-163" style="shape=tableRow;horizontal=0;startSize=0;swimlaneHead=0;swimlaneBody=0;fillColor=none;collapsible=0;dropTarget=0;points=[[0,0.5],[1,0.5]];portConstraint=eastwest;top=0;left=0;right=0;bottom=0;" vertex="1" parent="hM3irIBogoN5N5FxGbWt-159">
          <mxGeometry y="47" width="140" height="23" as="geometry" />
        </mxCell>
        <mxCell id="hM3irIBogoN5N5FxGbWt-164" value="date" style="shape=partialRectangle;connectable=0;fillColor=none;top=0;left=0;bottom=0;right=0;align=left;spacingLeft=2;overflow=hidden;fontSize=11;" vertex="1" parent="hM3irIBogoN5N5FxGbWt-163">
          <mxGeometry width="36" height="23" as="geometry">
            <mxRectangle width="36" height="23" as="alternateBounds" />
          </mxGeometry>
        </mxCell>
        <mxCell id="hM3irIBogoN5N5FxGbWt-165" value="Дата ТО" style="shape=partialRectangle;connectable=0;fillColor=none;top=0;left=0;bottom=0;right=0;align=left;spacingLeft=2;overflow=hidden;fontSize=11;" vertex="1" parent="hM3irIBogoN5N5FxGbWt-163">
          <mxGeometry x="36" width="104" height="23" as="geometry">
            <mxRectangle width="104" height="23" as="alternateBounds" />
          </mxGeometry>
        </mxCell>
        <mxCell id="hM3irIBogoN5N5FxGbWt-166" style="shape=tableRow;horizontal=0;startSize=0;swimlaneHead=0;swimlaneBody=0;fillColor=none;collapsible=0;dropTarget=0;points=[[0,0.5],[1,0.5]];portConstraint=eastwest;top=0;left=0;right=0;bottom=0;" vertex="1" parent="hM3irIBogoN5N5FxGbWt-159">
          <mxGeometry y="70" width="140" height="22" as="geometry" />
        </mxCell>
        <mxCell id="hM3irIBogoN5N5FxGbWt-167" value="string" style="shape=partialRectangle;connectable=0;fillColor=none;top=0;left=0;bottom=0;right=0;align=left;spacingLeft=2;overflow=hidden;fontSize=11;" vertex="1" parent="hM3irIBogoN5N5FxGbWt-166">
          <mxGeometry width="36" height="22" as="geometry">
            <mxRectangle width="36" height="22" as="alternateBounds" />
          </mxGeometry>
        </mxCell>
        <mxCell id="hM3irIBogoN5N5FxGbWt-168" value="ФИО водителя" style="shape=partialRectangle;connectable=0;fillColor=none;top=0;left=0;bottom=0;right=0;align=left;spacingLeft=2;overflow=hidden;fontSize=11;" vertex="1" parent="hM3irIBogoN5N5FxGbWt-166">
          <mxGeometry x="36" width="104" height="22" as="geometry">
            <mxRectangle width="104" height="22" as="alternateBounds" />
          </mxGeometry>
        </mxCell>
        <mxCell id="hM3irIBogoN5N5FxGbWt-169" style="shape=tableRow;horizontal=0;startSize=0;swimlaneHead=0;swimlaneBody=0;fillColor=none;collapsible=0;dropTarget=0;points=[[0,0.5],[1,0.5]];portConstraint=eastwest;top=0;left=0;right=0;bottom=0;" vertex="1" parent="hM3irIBogoN5N5FxGbWt-159">
          <mxGeometry y="92" width="140" height="22" as="geometry" />
        </mxCell>
        <mxCell id="hM3irIBogoN5N5FxGbWt-170" value="int" style="shape=partialRectangle;connectable=0;fillColor=none;top=0;left=0;bottom=0;right=0;align=left;spacingLeft=2;overflow=hidden;fontSize=11;" vertex="1" parent="hM3irIBogoN5N5FxGbWt-169">
          <mxGeometry width="36" height="22" as="geometry">
            <mxRectangle width="36" height="22" as="alternateBounds" />
          </mxGeometry>
        </mxCell>
        <mxCell id="hM3irIBogoN5N5FxGbWt-171" value="Грузоподъёмность" style="shape=partialRectangle;connectable=0;fillColor=none;top=0;left=0;bottom=0;right=0;align=left;spacingLeft=2;overflow=hidden;fontSize=11;" vertex="1" parent="hM3irIBogoN5N5FxGbWt-169">
          <mxGeometry x="36" width="104" height="22" as="geometry">
            <mxRectangle width="104" height="22" as="alternateBounds" />
          </mxGeometry>
        </mxCell>
        <mxCell id="hM3irIBogoN5N5FxGbWt-172" value="Водители" style="shape=table;startSize=25;container=1;collapsible=0;childLayout=tableLayout;fixedRows=1;rowLines=1;fontStyle=1;align=center;resizeLast=1;" vertex="1" parent="1">
          <mxGeometry x="30" y="50" width="180" height="69" as="geometry" />
        </mxCell>
        <mxCell id="hM3irIBogoN5N5FxGbWt-173" style="shape=tableRow;horizontal=0;startSize=0;swimlaneHead=0;swimlaneBody=0;fillColor=none;collapsible=0;dropTarget=0;points=[[0,0.5],[1,0.5]];portConstraint=eastwest;top=0;left=0;right=0;bottom=0;" vertex="1" parent="hM3irIBogoN5N5FxGbWt-172">
          <mxGeometry y="25" width="180" height="22" as="geometry" />
        </mxCell>
        <mxCell id="hM3irIBogoN5N5FxGbWt-174" value="string" style="shape=partialRectangle;connectable=0;fillColor=none;top=0;left=0;bottom=0;right=0;align=left;spacingLeft=2;overflow=hidden;fontSize=11;" vertex="1" parent="hM3irIBogoN5N5FxGbWt-173">
          <mxGeometry width="36" height="22" as="geometry">
            <mxRectangle width="36" height="22" as="alternateBounds" />
          </mxGeometry>
        </mxCell>
        <mxCell id="hM3irIBogoN5N5FxGbWt-175" value="ФИО" style="shape=partialRectangle;connectable=0;fillColor=none;top=0;left=0;bottom=0;right=0;align=left;spacingLeft=2;overflow=hidden;fontSize=11;" vertex="1" parent="hM3irIBogoN5N5FxGbWt-173">
          <mxGeometry x="36" width="144" height="22" as="geometry">
            <mxRectangle width="144" height="22" as="alternateBounds" />
          </mxGeometry>
        </mxCell>
        <mxCell id="hM3irIBogoN5N5FxGbWt-176" style="shape=tableRow;horizontal=0;startSize=0;swimlaneHead=0;swimlaneBody=0;fillColor=none;collapsible=0;dropTarget=0;points=[[0,0.5],[1,0.5]];portConstraint=eastwest;top=0;left=0;right=0;bottom=0;" vertex="1" parent="hM3irIBogoN5N5FxGbWt-172">
          <mxGeometry y="47" width="180" height="22" as="geometry" />
        </mxCell>
        <mxCell id="hM3irIBogoN5N5FxGbWt-177" value="string" style="shape=partialRectangle;connectable=0;fillColor=none;top=0;left=0;bottom=0;right=0;align=left;spacingLeft=2;overflow=hidden;fontSize=11;" vertex="1" parent="hM3irIBogoN5N5FxGbWt-176">
          <mxGeometry width="36" height="22" as="geometry">
            <mxRectangle width="36" height="22" as="alternateBounds" />
          </mxGeometry>
        </mxCell>
        <mxCell id="hM3irIBogoN5N5FxGbWt-178" value="Контактная информация" style="shape=partialRectangle;connectable=0;fillColor=none;top=0;left=0;bottom=0;right=0;align=left;spacingLeft=2;overflow=hidden;fontSize=11;" vertex="1" parent="hM3irIBogoN5N5FxGbWt-176">
          <mxGeometry x="36" width="144" height="22" as="geometry">
            <mxRectangle width="144" height="22" as="alternateBounds" />
          </mxGeometry>
        </mxCell>
        <mxCell id="hM3irIBogoN5N5FxGbWt-179" value="Груз" style="shape=table;startSize=25;container=1;collapsible=0;childLayout=tableLayout;fixedRows=1;rowLines=1;fontStyle=1;align=center;resizeLast=1;" vertex="1" parent="1">
          <mxGeometry x="250" y="188" width="134" height="91" as="geometry" />
        </mxCell>
        <mxCell id="hM3irIBogoN5N5FxGbWt-180" style="shape=tableRow;horizontal=0;startSize=0;swimlaneHead=0;swimlaneBody=0;fillColor=none;collapsible=0;dropTarget=0;points=[[0,0.5],[1,0.5]];portConstraint=eastwest;top=0;left=0;right=0;bottom=0;" vertex="1" parent="hM3irIBogoN5N5FxGbWt-179">
          <mxGeometry y="25" width="134" height="22" as="geometry" />
        </mxCell>
        <mxCell id="hM3irIBogoN5N5FxGbWt-181" value="string" style="shape=partialRectangle;connectable=0;fillColor=none;top=0;left=0;bottom=0;right=0;align=left;spacingLeft=2;overflow=hidden;fontSize=11;" vertex="1" parent="hM3irIBogoN5N5FxGbWt-180">
          <mxGeometry width="36" height="22" as="geometry">
            <mxRectangle width="36" height="22" as="alternateBounds" />
          </mxGeometry>
        </mxCell>
        <mxCell id="hM3irIBogoN5N5FxGbWt-182" value="Наименование" style="shape=partialRectangle;connectable=0;fillColor=none;top=0;left=0;bottom=0;right=0;align=left;spacingLeft=2;overflow=hidden;fontSize=11;" vertex="1" parent="hM3irIBogoN5N5FxGbWt-180">
          <mxGeometry x="36" width="98" height="22" as="geometry">
            <mxRectangle width="98" height="22" as="alternateBounds" />
          </mxGeometry>
        </mxCell>
        <mxCell id="hM3irIBogoN5N5FxGbWt-183" style="shape=tableRow;horizontal=0;startSize=0;swimlaneHead=0;swimlaneBody=0;fillColor=none;collapsible=0;dropTarget=0;points=[[0,0.5],[1,0.5]];portConstraint=eastwest;top=0;left=0;right=0;bottom=0;" vertex="1" parent="hM3irIBogoN5N5FxGbWt-179">
          <mxGeometry y="47" width="134" height="22" as="geometry" />
        </mxCell>
        <mxCell id="hM3irIBogoN5N5FxGbWt-184" value="string" style="shape=partialRectangle;connectable=0;fillColor=none;top=0;left=0;bottom=0;right=0;align=left;spacingLeft=2;overflow=hidden;fontSize=11;" vertex="1" parent="hM3irIBogoN5N5FxGbWt-183">
          <mxGeometry width="36" height="22" as="geometry">
            <mxRectangle width="36" height="22" as="alternateBounds" />
          </mxGeometry>
        </mxCell>
        <mxCell id="hM3irIBogoN5N5FxGbWt-185" value="Адрес" style="shape=partialRectangle;connectable=0;fillColor=none;top=0;left=0;bottom=0;right=0;align=left;spacingLeft=2;overflow=hidden;fontSize=11;" vertex="1" parent="hM3irIBogoN5N5FxGbWt-183">
          <mxGeometry x="36" width="98" height="22" as="geometry">
            <mxRectangle width="98" height="22" as="alternateBounds" />
          </mxGeometry>
        </mxCell>
        <mxCell id="hM3irIBogoN5N5FxGbWt-186" style="shape=tableRow;horizontal=0;startSize=0;swimlaneHead=0;swimlaneBody=0;fillColor=none;collapsible=0;dropTarget=0;points=[[0,0.5],[1,0.5]];portConstraint=eastwest;top=0;left=0;right=0;bottom=0;" vertex="1" parent="hM3irIBogoN5N5FxGbWt-179">
          <mxGeometry y="69" width="134" height="22" as="geometry" />
        </mxCell>
        <mxCell id="hM3irIBogoN5N5FxGbWt-187" value="string" style="shape=partialRectangle;connectable=0;fillColor=none;top=0;left=0;bottom=0;right=0;align=left;spacingLeft=2;overflow=hidden;fontSize=11;" vertex="1" parent="hM3irIBogoN5N5FxGbWt-186">
          <mxGeometry width="36" height="22" as="geometry">
            <mxRectangle width="36" height="22" as="alternateBounds" />
          </mxGeometry>
        </mxCell>
        <mxCell id="hM3irIBogoN5N5FxGbWt-188" value="Расчётный счёт" style="shape=partialRectangle;connectable=0;fillColor=none;top=0;left=0;bottom=0;right=0;align=left;spacingLeft=2;overflow=hidden;fontSize=11;" vertex="1" parent="hM3irIBogoN5N5FxGbWt-186">
          <mxGeometry x="36" width="98" height="22" as="geometry">
            <mxRectangle width="98" height="22" as="alternateBounds" />
          </mxGeometry>
        </mxCell>
        <mxCell id="hM3irIBogoN5N5FxGbWt-189" value="Грузополучатель" style="shape=table;startSize=25;container=1;collapsible=0;childLayout=tableLayout;fixedRows=1;rowLines=1;fontStyle=1;align=center;resizeLast=1;" vertex="1" parent="1">
          <mxGeometry x="452" y="199" width="128" height="91" as="geometry" />
        </mxCell>
        <mxCell id="hM3irIBogoN5N5FxGbWt-190" style="shape=tableRow;horizontal=0;startSize=0;swimlaneHead=0;swimlaneBody=0;fillColor=none;collapsible=0;dropTarget=0;points=[[0,0.5],[1,0.5]];portConstraint=eastwest;top=0;left=0;right=0;bottom=0;" vertex="1" parent="hM3irIBogoN5N5FxGbWt-189">
          <mxGeometry y="25" width="128" height="22" as="geometry" />
        </mxCell>
        <mxCell id="hM3irIBogoN5N5FxGbWt-191" value="string" style="shape=partialRectangle;connectable=0;fillColor=none;top=0;left=0;bottom=0;right=0;align=left;spacingLeft=2;overflow=hidden;fontSize=11;" vertex="1" parent="hM3irIBogoN5N5FxGbWt-190">
          <mxGeometry width="36" height="22" as="geometry">
            <mxRectangle width="36" height="22" as="alternateBounds" />
          </mxGeometry>
        </mxCell>
        <mxCell id="hM3irIBogoN5N5FxGbWt-192" value="Наименование" style="shape=partialRectangle;connectable=0;fillColor=none;top=0;left=0;bottom=0;right=0;align=left;spacingLeft=2;overflow=hidden;fontSize=11;" vertex="1" parent="hM3irIBogoN5N5FxGbWt-190">
          <mxGeometry x="36" width="92" height="22" as="geometry">
            <mxRectangle width="92" height="22" as="alternateBounds" />
          </mxGeometry>
        </mxCell>
        <mxCell id="hM3irIBogoN5N5FxGbWt-193" style="shape=tableRow;horizontal=0;startSize=0;swimlaneHead=0;swimlaneBody=0;fillColor=none;collapsible=0;dropTarget=0;points=[[0,0.5],[1,0.5]];portConstraint=eastwest;top=0;left=0;right=0;bottom=0;" vertex="1" parent="hM3irIBogoN5N5FxGbWt-189">
          <mxGeometry y="47" width="128" height="22" as="geometry" />
        </mxCell>
        <mxCell id="hM3irIBogoN5N5FxGbWt-194" value="string" style="shape=partialRectangle;connectable=0;fillColor=none;top=0;left=0;bottom=0;right=0;align=left;spacingLeft=2;overflow=hidden;fontSize=11;" vertex="1" parent="hM3irIBogoN5N5FxGbWt-193">
          <mxGeometry width="36" height="22" as="geometry">
            <mxRectangle width="36" height="22" as="alternateBounds" />
          </mxGeometry>
        </mxCell>
        <mxCell id="hM3irIBogoN5N5FxGbWt-195" value="Адрес" style="shape=partialRectangle;connectable=0;fillColor=none;top=0;left=0;bottom=0;right=0;align=left;spacingLeft=2;overflow=hidden;fontSize=11;" vertex="1" parent="hM3irIBogoN5N5FxGbWt-193">
          <mxGeometry x="36" width="92" height="22" as="geometry">
            <mxRectangle width="92" height="22" as="alternateBounds" />
          </mxGeometry>
        </mxCell>
        <mxCell id="hM3irIBogoN5N5FxGbWt-196" style="shape=tableRow;horizontal=0;startSize=0;swimlaneHead=0;swimlaneBody=0;fillColor=none;collapsible=0;dropTarget=0;points=[[0,0.5],[1,0.5]];portConstraint=eastwest;top=0;left=0;right=0;bottom=0;" vertex="1" parent="hM3irIBogoN5N5FxGbWt-189">
          <mxGeometry y="69" width="128" height="22" as="geometry" />
        </mxCell>
        <mxCell id="hM3irIBogoN5N5FxGbWt-197" value="string" style="shape=partialRectangle;connectable=0;fillColor=none;top=0;left=0;bottom=0;right=0;align=left;spacingLeft=2;overflow=hidden;fontSize=11;" vertex="1" parent="hM3irIBogoN5N5FxGbWt-196">
          <mxGeometry width="36" height="22" as="geometry">
            <mxRectangle width="36" height="22" as="alternateBounds" />
          </mxGeometry>
        </mxCell>
        <mxCell id="hM3irIBogoN5N5FxGbWt-198" value="Расчётный счёт" style="shape=partialRectangle;connectable=0;fillColor=none;top=0;left=0;bottom=0;right=0;align=left;spacingLeft=2;overflow=hidden;fontSize=11;" vertex="1" parent="hM3irIBogoN5N5FxGbWt-196">
          <mxGeometry x="36" width="92" height="22" as="geometry">
            <mxRectangle width="92" height="22" as="alternateBounds" />
          </mxGeometry>
        </mxCell>
        <mxCell id="hM3irIBogoN5N5FxGbWt-209" value="Доставка груза" style="shape=table;startSize=25;container=1;collapsible=0;childLayout=tableLayout;fixedRows=1;rowLines=1;fontStyle=1;align=center;resizeLast=1;" vertex="1" parent="1">
          <mxGeometry x="230" y="400" width="170" height="180" as="geometry" />
        </mxCell>
        <mxCell id="hM3irIBogoN5N5FxGbWt-210" style="shape=tableRow;horizontal=0;startSize=0;swimlaneHead=0;swimlaneBody=0;fillColor=none;collapsible=0;dropTarget=0;points=[[0,0.5],[1,0.5]];portConstraint=eastwest;top=0;left=0;right=0;bottom=0;" vertex="1" parent="hM3irIBogoN5N5FxGbWt-209">
          <mxGeometry y="25" width="170" height="22" as="geometry" />
        </mxCell>
        <mxCell id="hM3irIBogoN5N5FxGbWt-211" value="string" style="shape=partialRectangle;connectable=0;fillColor=none;top=0;left=0;bottom=0;right=0;align=left;spacingLeft=2;overflow=hidden;fontSize=11;" vertex="1" parent="hM3irIBogoN5N5FxGbWt-210">
          <mxGeometry width="40" height="22" as="geometry">
            <mxRectangle width="40" height="22" as="alternateBounds" />
          </mxGeometry>
        </mxCell>
        <mxCell id="hM3irIBogoN5N5FxGbWt-212" value="Наименование " style="shape=partialRectangle;connectable=0;fillColor=none;top=0;left=0;bottom=0;right=0;align=left;spacingLeft=2;overflow=hidden;fontSize=11;" vertex="1" parent="hM3irIBogoN5N5FxGbWt-210">
          <mxGeometry x="40" width="130" height="22" as="geometry">
            <mxRectangle width="130" height="22" as="alternateBounds" />
          </mxGeometry>
        </mxCell>
        <mxCell id="hM3irIBogoN5N5FxGbWt-213" style="shape=tableRow;horizontal=0;startSize=0;swimlaneHead=0;swimlaneBody=0;fillColor=none;collapsible=0;dropTarget=0;points=[[0,0.5],[1,0.5]];portConstraint=eastwest;top=0;left=0;right=0;bottom=0;" vertex="1" parent="hM3irIBogoN5N5FxGbWt-209">
          <mxGeometry y="47" width="170" height="22" as="geometry" />
        </mxCell>
        <mxCell id="hM3irIBogoN5N5FxGbWt-214" value="string" style="shape=partialRectangle;connectable=0;fillColor=none;top=0;left=0;bottom=0;right=0;align=left;spacingLeft=2;overflow=hidden;fontSize=11;" vertex="1" parent="hM3irIBogoN5N5FxGbWt-213">
          <mxGeometry width="40" height="22" as="geometry">
            <mxRectangle width="40" height="22" as="alternateBounds" />
          </mxGeometry>
        </mxCell>
        <mxCell id="hM3irIBogoN5N5FxGbWt-215" value="Ценность" style="shape=partialRectangle;connectable=0;fillColor=none;top=0;left=0;bottom=0;right=0;align=left;spacingLeft=2;overflow=hidden;fontSize=11;" vertex="1" parent="hM3irIBogoN5N5FxGbWt-213">
          <mxGeometry x="40" width="130" height="22" as="geometry">
            <mxRectangle width="130" height="22" as="alternateBounds" />
          </mxGeometry>
        </mxCell>
        <mxCell id="hM3irIBogoN5N5FxGbWt-216" style="shape=tableRow;horizontal=0;startSize=0;swimlaneHead=0;swimlaneBody=0;fillColor=none;collapsible=0;dropTarget=0;points=[[0,0.5],[1,0.5]];portConstraint=eastwest;top=0;left=0;right=0;bottom=0;" vertex="1" parent="hM3irIBogoN5N5FxGbWt-209">
          <mxGeometry y="69" width="170" height="22" as="geometry" />
        </mxCell>
        <mxCell id="hM3irIBogoN5N5FxGbWt-217" value="int" style="shape=partialRectangle;connectable=0;fillColor=none;top=0;left=0;bottom=0;right=0;align=left;spacingLeft=2;overflow=hidden;fontSize=11;" vertex="1" parent="hM3irIBogoN5N5FxGbWt-216">
          <mxGeometry width="40" height="22" as="geometry">
            <mxRectangle width="40" height="22" as="alternateBounds" />
          </mxGeometry>
        </mxCell>
        <mxCell id="hM3irIBogoN5N5FxGbWt-218" value="Количество " style="shape=partialRectangle;connectable=0;fillColor=none;top=0;left=0;bottom=0;right=0;align=left;spacingLeft=2;overflow=hidden;fontSize=11;" vertex="1" parent="hM3irIBogoN5N5FxGbWt-216">
          <mxGeometry x="40" width="130" height="22" as="geometry">
            <mxRectangle width="130" height="22" as="alternateBounds" />
          </mxGeometry>
        </mxCell>
        <mxCell id="hM3irIBogoN5N5FxGbWt-219" style="shape=tableRow;horizontal=0;startSize=0;swimlaneHead=0;swimlaneBody=0;fillColor=none;collapsible=0;dropTarget=0;points=[[0,0.5],[1,0.5]];portConstraint=eastwest;top=0;left=0;right=0;bottom=0;" vertex="1" parent="hM3irIBogoN5N5FxGbWt-209">
          <mxGeometry y="91" width="170" height="22" as="geometry" />
        </mxCell>
        <mxCell id="hM3irIBogoN5N5FxGbWt-220" value="date" style="shape=partialRectangle;connectable=0;fillColor=none;top=0;left=0;bottom=0;right=0;align=left;spacingLeft=2;overflow=hidden;fontSize=11;" vertex="1" parent="hM3irIBogoN5N5FxGbWt-219">
          <mxGeometry width="40" height="22" as="geometry">
            <mxRectangle width="40" height="22" as="alternateBounds" />
          </mxGeometry>
        </mxCell>
        <mxCell id="hM3irIBogoN5N5FxGbWt-221" value="Дата погрузки" style="shape=partialRectangle;connectable=0;fillColor=none;top=0;left=0;bottom=0;right=0;align=left;spacingLeft=2;overflow=hidden;fontSize=11;" vertex="1" parent="hM3irIBogoN5N5FxGbWt-219">
          <mxGeometry x="40" width="130" height="22" as="geometry">
            <mxRectangle width="130" height="22" as="alternateBounds" />
          </mxGeometry>
        </mxCell>
        <mxCell id="hM3irIBogoN5N5FxGbWt-254" style="shape=tableRow;horizontal=0;startSize=0;swimlaneHead=0;swimlaneBody=0;fillColor=none;collapsible=0;dropTarget=0;points=[[0,0.5],[1,0.5]];portConstraint=eastwest;top=0;left=0;right=0;bottom=0;" vertex="1" parent="hM3irIBogoN5N5FxGbWt-209">
          <mxGeometry y="113" width="170" height="20" as="geometry" />
        </mxCell>
        <mxCell id="hM3irIBogoN5N5FxGbWt-255" value="date" style="shape=partialRectangle;connectable=0;fillColor=none;top=0;left=0;bottom=0;right=0;align=left;spacingLeft=2;overflow=hidden;fontSize=11;" vertex="1" parent="hM3irIBogoN5N5FxGbWt-254">
          <mxGeometry width="40" height="20" as="geometry">
            <mxRectangle width="40" height="20" as="alternateBounds" />
          </mxGeometry>
        </mxCell>
        <mxCell id="hM3irIBogoN5N5FxGbWt-256" value="Дата доставки" style="shape=partialRectangle;connectable=0;fillColor=none;top=0;left=0;bottom=0;right=0;align=left;spacingLeft=2;overflow=hidden;fontSize=11;" vertex="1" parent="hM3irIBogoN5N5FxGbWt-254">
          <mxGeometry x="40" width="130" height="20" as="geometry">
            <mxRectangle width="130" height="20" as="alternateBounds" />
          </mxGeometry>
        </mxCell>
        <mxCell id="hM3irIBogoN5N5FxGbWt-277" style="shape=tableRow;horizontal=0;startSize=0;swimlaneHead=0;swimlaneBody=0;fillColor=none;collapsible=0;dropTarget=0;points=[[0,0.5],[1,0.5]];portConstraint=eastwest;top=0;left=0;right=0;bottom=0;" vertex="1" parent="hM3irIBogoN5N5FxGbWt-209">
          <mxGeometry y="133" width="170" height="20" as="geometry" />
        </mxCell>
        <mxCell id="hM3irIBogoN5N5FxGbWt-278" value="string" style="shape=partialRectangle;connectable=0;fillColor=none;top=0;left=0;bottom=0;right=0;align=left;spacingLeft=2;overflow=hidden;fontSize=11;" vertex="1" parent="hM3irIBogoN5N5FxGbWt-277">
          <mxGeometry width="40" height="20" as="geometry">
            <mxRectangle width="40" height="20" as="alternateBounds" />
          </mxGeometry>
        </mxCell>
        <mxCell id="hM3irIBogoN5N5FxGbWt-279" value="Сведения о доставке" style="shape=partialRectangle;connectable=0;fillColor=none;top=0;left=0;bottom=0;right=0;align=left;spacingLeft=2;overflow=hidden;fontSize=11;" vertex="1" parent="hM3irIBogoN5N5FxGbWt-277">
          <mxGeometry x="40" width="130" height="20" as="geometry">
            <mxRectangle width="130" height="20" as="alternateBounds" />
          </mxGeometry>
        </mxCell>
        <mxCell id="hM3irIBogoN5N5FxGbWt-222" style="shape=tableRow;horizontal=0;startSize=0;swimlaneHead=0;swimlaneBody=0;fillColor=none;collapsible=0;dropTarget=0;points=[[0,0.5],[1,0.5]];portConstraint=eastwest;top=0;left=0;right=0;bottom=0;" vertex="1" parent="hM3irIBogoN5N5FxGbWt-209">
          <mxGeometry y="153" width="170" height="20" as="geometry" />
        </mxCell>
        <mxCell id="hM3irIBogoN5N5FxGbWt-223" value="string" style="shape=partialRectangle;connectable=0;fillColor=none;top=0;left=0;bottom=0;right=0;align=left;spacingLeft=2;overflow=hidden;fontSize=11;" vertex="1" parent="hM3irIBogoN5N5FxGbWt-222">
          <mxGeometry width="40" height="20" as="geometry">
            <mxRectangle width="40" height="20" as="alternateBounds" />
          </mxGeometry>
        </mxCell>
        <mxCell id="hM3irIBogoN5N5FxGbWt-224" value="Сторона оплаты" style="shape=partialRectangle;connectable=0;fillColor=none;top=0;left=0;bottom=0;right=0;align=left;spacingLeft=2;overflow=hidden;fontSize=11;" vertex="1" parent="hM3irIBogoN5N5FxGbWt-222">
          <mxGeometry x="40" width="130" height="20" as="geometry">
            <mxRectangle width="130" height="20" as="alternateBounds" />
          </mxGeometry>
        </mxCell>
        <mxCell id="hM3irIBogoN5N5FxGbWt-225" value="Оплата" style="shape=table;startSize=25;container=1;collapsible=0;childLayout=tableLayout;fixedRows=1;rowLines=1;fontStyle=1;align=center;resizeLast=1;" vertex="1" parent="1">
          <mxGeometry x="250" y="710" width="108" height="69" as="geometry" />
        </mxCell>
        <mxCell id="hM3irIBogoN5N5FxGbWt-226" style="shape=tableRow;horizontal=0;startSize=0;swimlaneHead=0;swimlaneBody=0;fillColor=none;collapsible=0;dropTarget=0;points=[[0,0.5],[1,0.5]];portConstraint=eastwest;top=0;left=0;right=0;bottom=0;" vertex="1" parent="hM3irIBogoN5N5FxGbWt-225">
          <mxGeometry y="25" width="108" height="22" as="geometry" />
        </mxCell>
        <mxCell id="hM3irIBogoN5N5FxGbWt-227" value="float" style="shape=partialRectangle;connectable=0;fillColor=none;top=0;left=0;bottom=0;right=0;align=left;spacingLeft=2;overflow=hidden;fontSize=11;" vertex="1" parent="hM3irIBogoN5N5FxGbWt-226">
          <mxGeometry width="30" height="22" as="geometry">
            <mxRectangle width="30" height="22" as="alternateBounds" />
          </mxGeometry>
        </mxCell>
        <mxCell id="hM3irIBogoN5N5FxGbWt-228" value="Сумма" style="shape=partialRectangle;connectable=0;fillColor=none;top=0;left=0;bottom=0;right=0;align=left;spacingLeft=2;overflow=hidden;fontSize=11;" vertex="1" parent="hM3irIBogoN5N5FxGbWt-226">
          <mxGeometry x="30" width="78" height="22" as="geometry">
            <mxRectangle width="78" height="22" as="alternateBounds" />
          </mxGeometry>
        </mxCell>
        <mxCell id="hM3irIBogoN5N5FxGbWt-229" style="shape=tableRow;horizontal=0;startSize=0;swimlaneHead=0;swimlaneBody=0;fillColor=none;collapsible=0;dropTarget=0;points=[[0,0.5],[1,0.5]];portConstraint=eastwest;top=0;left=0;right=0;bottom=0;" vertex="1" parent="hM3irIBogoN5N5FxGbWt-225">
          <mxGeometry y="47" width="108" height="22" as="geometry" />
        </mxCell>
        <mxCell id="hM3irIBogoN5N5FxGbWt-230" value="date" style="shape=partialRectangle;connectable=0;fillColor=none;top=0;left=0;bottom=0;right=0;align=left;spacingLeft=2;overflow=hidden;fontSize=11;" vertex="1" parent="hM3irIBogoN5N5FxGbWt-229">
          <mxGeometry width="30" height="22" as="geometry">
            <mxRectangle width="30" height="22" as="alternateBounds" />
          </mxGeometry>
        </mxCell>
        <mxCell id="hM3irIBogoN5N5FxGbWt-231" value="Дата оплаты" style="shape=partialRectangle;connectable=0;fillColor=none;top=0;left=0;bottom=0;right=0;align=left;spacingLeft=2;overflow=hidden;fontSize=11;" vertex="1" parent="hM3irIBogoN5N5FxGbWt-229">
          <mxGeometry x="30" width="78" height="22" as="geometry">
            <mxRectangle width="78" height="22" as="alternateBounds" />
          </mxGeometry>
        </mxCell>
        <mxCell id="hM3irIBogoN5N5FxGbWt-237" value="includes" style="curved=1;startArrow=ERmandOne;startSize=10;;endArrow=ERzeroToMany;endSize=10;;exitX=0.5;exitY=1;entryX=0.5;entryY=0;rounded=0;exitDx=0;exitDy=0;entryDx=0;entryDy=0;" edge="1" parent="1" source="hM3irIBogoN5N5FxGbWt-209">
          <mxGeometry x="-0.1568" y="5" relative="1" as="geometry">
            <Array as="points">
              <mxPoint x="310" y="610" />
              <mxPoint x="310" y="624" />
              <mxPoint x="302" y="650" />
            </Array>
            <mxPoint x="313" y="590" as="sourcePoint" />
            <mxPoint x="302" y="720" as="targetPoint" />
            <mxPoint as="offset" />
          </mxGeometry>
        </mxCell>
        <mxCell id="hM3irIBogoN5N5FxGbWt-326" value="" style="edgeStyle=entityRelationEdgeStyle;fontSize=12;html=1;endArrow=ERzeroToMany;startArrow=ERmandOne;rounded=0;entryX=0.003;entryY=0.126;entryDx=0;entryDy=0;entryPerimeter=0;exitX=0.987;exitY=0.246;exitDx=0;exitDy=0;exitPerimeter=0;" edge="1" parent="1" source="hM3irIBogoN5N5FxGbWt-172" target="hM3irIBogoN5N5FxGbWt-159">
          <mxGeometry width="100" height="100" relative="1" as="geometry">
            <mxPoint x="290" y="140" as="sourcePoint" />
            <mxPoint x="390" y="40" as="targetPoint" />
          </mxGeometry>
        </mxCell>
      </root>
    </mxGraphModel>
  </diagram>
</mxfile>
